<mxfile host="app.diagrams.net" agent="Mozilla/5.0 (Windows NT 10.0; Win64; x64) AppleWebKit/537.36 (KHTML, like Gecko) Chrome/126.0.0.0 Safari/537.36" version="24.7.10">
  <diagram name="第 1 页" id="tcjfngW0dbOeDt48iCtw">
    <mxGraphModel dx="1049" dy="552" grid="1" gridSize="10" guides="1" tooltips="1" connect="1" arrows="1" fold="1" page="1" pageScale="1" pageWidth="827" pageHeight="1169" math="0" shadow="0">
      <root>
        <mxCell id="0" />
        <mxCell id="1" parent="0" />
        <mxCell id="nhjD9lwhtjzs_iJEXQcU-12" value="" style="rounded=1;whiteSpace=wrap;html=1;" vertex="1" parent="1">
          <mxGeometry x="240" y="310" width="300" height="80" as="geometry" />
        </mxCell>
        <mxCell id="nhjD9lwhtjzs_iJEXQcU-8" style="edgeStyle=orthogonalEdgeStyle;rounded=0;orthogonalLoop=1;jettySize=auto;html=1;exitX=0.5;exitY=1;exitDx=0;exitDy=0;entryX=0.5;entryY=0;entryDx=0;entryDy=0;" edge="1" parent="1" source="nhjD9lwhtjzs_iJEXQcU-1" target="nhjD9lwhtjzs_iJEXQcU-4">
          <mxGeometry relative="1" as="geometry" />
        </mxCell>
        <mxCell id="nhjD9lwhtjzs_iJEXQcU-1" value="无人机影像拼接" style="rounded=1;whiteSpace=wrap;html=1;" vertex="1" parent="1">
          <mxGeometry x="400" y="120" width="120" height="60" as="geometry" />
        </mxCell>
        <mxCell id="nhjD9lwhtjzs_iJEXQcU-2" value="RGB长势" style="rounded=1;whiteSpace=wrap;html=1;" vertex="1" parent="1">
          <mxGeometry x="260" y="320" width="120" height="60" as="geometry" />
        </mxCell>
        <mxCell id="nhjD9lwhtjzs_iJEXQcU-11" style="edgeStyle=orthogonalEdgeStyle;rounded=0;orthogonalLoop=1;jettySize=auto;html=1;exitX=0;exitY=0.5;exitDx=0;exitDy=0;entryX=1;entryY=0.5;entryDx=0;entryDy=0;" edge="1" parent="1" source="nhjD9lwhtjzs_iJEXQcU-3" target="nhjD9lwhtjzs_iJEXQcU-5">
          <mxGeometry relative="1" as="geometry" />
        </mxCell>
        <mxCell id="nhjD9lwhtjzs_iJEXQcU-3" value="异常点检测" style="rounded=1;whiteSpace=wrap;html=1;" vertex="1" parent="1">
          <mxGeometry x="600" y="320" width="120" height="60" as="geometry" />
        </mxCell>
        <mxCell id="nhjD9lwhtjzs_iJEXQcU-9" style="edgeStyle=orthogonalEdgeStyle;rounded=0;orthogonalLoop=1;jettySize=auto;html=1;exitX=0.5;exitY=1;exitDx=0;exitDy=0;entryX=0.5;entryY=0;entryDx=0;entryDy=0;" edge="1" parent="1" source="nhjD9lwhtjzs_iJEXQcU-4" target="nhjD9lwhtjzs_iJEXQcU-5">
          <mxGeometry relative="1" as="geometry" />
        </mxCell>
        <mxCell id="nhjD9lwhtjzs_iJEXQcU-4" value="NDVI图像生成" style="rounded=1;whiteSpace=wrap;html=1;" vertex="1" parent="1">
          <mxGeometry x="400" y="220" width="120" height="60" as="geometry" />
        </mxCell>
        <mxCell id="nhjD9lwhtjzs_iJEXQcU-10" style="edgeStyle=orthogonalEdgeStyle;rounded=0;orthogonalLoop=1;jettySize=auto;html=1;exitX=0.5;exitY=1;exitDx=0;exitDy=0;" edge="1" parent="1" source="nhjD9lwhtjzs_iJEXQcU-5" target="nhjD9lwhtjzs_iJEXQcU-6">
          <mxGeometry relative="1" as="geometry" />
        </mxCell>
        <mxCell id="nhjD9lwhtjzs_iJEXQcU-5" value="长势影像生成" style="rounded=1;whiteSpace=wrap;html=1;" vertex="1" parent="1">
          <mxGeometry x="400" y="320" width="120" height="60" as="geometry" />
        </mxCell>
        <mxCell id="nhjD9lwhtjzs_iJEXQcU-6" value="产量预估" style="rounded=1;whiteSpace=wrap;html=1;" vertex="1" parent="1">
          <mxGeometry x="400" y="420" width="120" height="60" as="geometry" />
        </mxCell>
        <mxCell id="nhjD9lwhtjzs_iJEXQcU-7" value="图像拆分" style="rounded=1;whiteSpace=wrap;html=1;" vertex="1" parent="1">
          <mxGeometry x="707" y="170" width="120" height="60" as="geometry" />
        </mxCell>
      </root>
    </mxGraphModel>
  </diagram>
</mxfile>
